<svg xmlns="http://www.w3.org/2000/svg" xmlns:xlink="http://www.w3.org/1999/xlink" viewBox="0,0,255.9978,255.9978" width="40px" height="40px"><g fill-opacity="0" fill="#dddddd" fill-rule="nonzero" stroke="none" stroke-width="1" stroke-linecap="butt" stroke-linejoin="miter" stroke-miterlimit="10" stroke-dasharray="" stroke-dashoffset="0" font-family="none" font-weight="none" font-size="none" text-anchor="none" style="mix-blend-mode: normal"><path d="M0,255.9978v-255.9978h255.9978v255.9978z" id="bgRectangle"></path></g><g fill="none" fill-rule="nonzero" stroke="none" stroke-width="1" stroke-linecap="butt" stroke-linejoin="miter" stroke-miterlimit="10" stroke-dasharray="" stroke-dashoffset="0" font-family="none" font-weight="none" font-size="none" text-anchor="none" style="mix-blend-mode: normal"><g transform="scale(6.4,6.4)"><path d="M37.432,11.297l-1.293,24.843l-24.232,1.293z" fill="#d84e4e"></path><path d="M36.864,12.595l-1.2,23.07l-22.503,1.2l23.703,-24.27M38,10l-27.346,28l25.962,-1.385l1.384,-26.615z" fill="#c74343"></path><path d="M35.792,36.115l-11.333,-11.89l12.975,-12.665l-1.293,24.555z" fill="#e26666"></path><path d="M36.867,12.811l-1.182,22.467l-10.523,-11.04l11.705,-11.427M38,10.308l-14.244,13.904l11.821,12.403h1.038l1.385,-26.307z" fill="#c74343"></path><path d="M9.549,37.5c-2.211,0 -3.958,-0.625 -5.191,-1.858c-4.353,-4.353 -0.877,-14.911 7.748,-23.536c5.925,-5.925 12.955,-9.606 18.345,-9.606c2.211,0 3.958,0.625 5.191,1.858c4.353,4.353 0.877,14.911 -7.748,23.536c-5.925,5.925 -12.955,9.606 -18.345,9.606z" fill="#ed7e7e"></path><path d="M30.452,3v0c2.073,0 3.7,0.576 4.836,1.712c4.087,4.087 0.539,14.541 -7.748,22.828c-5.835,5.835 -12.728,9.46 -17.991,9.46c-2.074,0 -3.701,-0.576 -4.837,-1.712c-4.087,-4.087 -0.539,-14.541 7.748,-22.828c5.834,-5.835 12.728,-9.46 17.992,-9.46M30.451,2c-5.313,0 -12.503,3.557 -18.699,9.753c-8.833,8.833 -12.302,19.687 -7.747,24.242c1.36,1.36 3.282,2.005 5.544,2.005c5.313,0 12.503,-3.557 18.699,-9.753c8.833,-8.833 12.302,-19.687 7.747,-24.242c-1.36,-1.36 -3.282,-2.005 -5.544,-2.005z" fill="#c74343"></path><g><path d="M6.151,23.872l-3.651,5.477v-9.21l4.051,-6.752l6.826,-6.826l7.746,-4.061h8.731l-3.751,3.68l9.528,3.811l-12.246,4.71l3.835,12.463l-12.519,-4.814l-4.685,13.118z" fill="#f7a3a3"></path><path d="M28.63,3l-2.33,2.286l-1.094,1.073l1.423,0.569l7.633,3.053l-10.621,4.085l-0.871,0.335l0.275,0.892l3.395,11.034l-11.08,-4.262l-0.956,-0.368l-0.345,0.965l-4.026,11.272l-3.084,-9.252l-0.647,-1.94l-1.134,1.701l-2.168,3.254v-7.42l3.948,-6.58l6.728,-6.728l7.57,-3.969h7.384M31.077,2h-10.077l-7.923,4.154l-6.923,6.923l-4.154,6.923v11l4,-6l4,12l5,-14l13,5l-4,-13l13,-5l-10,-4l4.077,-4z" fill="#c74343"></path></g><g><path d="M2.603,19.953l3.798,-6.647l6.895,-6.895l7.668,-3.834l5.441,3.627l-2.837,8.511l-8.803,7.825l-8.569,1.904z" fill="#ed7e7e"></path><path d="M20.928,3.154l4.882,3.254l-2.674,8.022l-8.606,7.65l-8.138,1.809l-3.186,-3.983l3.596,-6.294l6.791,-6.791l7.335,-3.667M21,2l-8,4l-7,7l-4,7l4,5l9,-2l9,-8l3,-9l-6,-4z" fill="#c74343"></path></g></g></g></svg>